Coordinates
version=1
nRows=7
nColumns=63
inDegrees=yes

Units are S.I. units (second, meters, Newtons, ...)
If the header above contains a line with 'inDegrees', this indicates whether rotational values are in degrees (yes) or radians (no).

endheader
time	pelvis_tilt	pelvis_list	pelvis_rotation	pelvis_tx	pelvis_ty	pelvis_tz	hip_flexion_r	hip_adduction_r	hip_rotation_r	knee_angle_r	knee_angle_r_beta	ankle_angle_r	subtalar_angle_r	mtp_angle_r	hip_flexion_l	hip_adduction_l	hip_rotation_l	knee_angle_l	knee_angle_l_beta	ankle_angle_l	subtalar_angle_l	mtp_angle_l	L5_S1_Flex_Ext	L5_S1_Lat_Bending	L5_S1_axial_rotation	L4_L5_Flex_Ext	L4_L5_Lat_Bending	L4_L5_axial_rotation	L3_L4_Flex_Ext	L3_L4_Lat_Bending	L3_L4_axial_rotation	L2_L3_Flex_Ext	L2_L3_Lat_Bending	L2_L3_axial_rotation	L1_L2_Flex_Ext	L1_L2_Lat_Bending	L1_L2_axial_rotation	L1_T12_Flex_Ext	L1_T12_Lat_Bending	L1_T12_axial_rotation	Abs_r3	Abs_r2	Abs_r1	Abs_t1	Abs_t2	neck_flexion	neck_bending	neck_rotation	arm_flex_r	arm_add_r	arm_rot_r	elbow_flex_r	pro_sup_r	wrist_flex_r	wrist_dev_r	arm_flex_l	arm_add_l	arm_rot_l	elbow_flex_l	pro_sup_l	wrist_flex_l	wrist_dev_l
      0.03333333	      4.69927615	     -0.12084065	    172.21001264	      2.47086407	      0.89638684	      0.58757562	      9.86067279	      2.81716633	      5.65948963	     13.39901179	      0.23385687	     16.12364784	    -16.80558891	      0.00000000	      9.05580766	     -0.74992485	     -9.09464176	     14.38885073	      0.25113282	     14.06162598	    -16.93757268	      0.00000000	     -0.00298298	     -0.10126004	      0.10113032	     -0.00553969	     -0.13467586	      0.10745097	     -0.00490074	     -0.24620367	      0.10745097	     -0.00340925	     -0.24620367	      0.08848903	     -0.00276999	     -0.20648948	      0.08216839	     -0.00170447	     -0.15685181	      0.07584774	     -0.02130712	     -1.14547387	      0.56245650	      0.00000000	      0.00000000	     -0.00000000	      0.00000000	      0.00000000	     -5.99430646	     -0.41902989	    -13.29645098	     27.10236387	     41.88794086	      0.00000000	      5.84369599	     -6.63046579	    -11.71431505	     29.24018529	     19.76909095	     44.72645594	      0.00000000	      5.84369599
      0.06666667	      4.85506231	     -0.49609145	    172.70149079	      2.46850677	      0.89619954	      0.58840062	     10.37200603	      2.46005067	      4.38279445	     14.58949530	      0.25463473	     17.23651646	    -15.50765362	      0.00000000	      9.01158281	     -0.10332268	     -8.44831426	     13.79582117	      0.24078250	     14.22262659	    -17.51087621	      0.00000000	     -0.00453910	     -0.14900892	     -0.11467593	     -0.00842955	     -0.19818187	     -0.12184318	     -0.00745728	     -0.36230030	     -0.12184318	     -0.00518773	     -0.36230030	     -0.10034144	     -0.00421500	     -0.30385900	     -0.09317419	     -0.00259364	     -0.23081482	     -0.08600695	     -0.03242231	     -1.68561876	     -0.63779313	      0.00000000	      0.00000000	     -0.00000000	      0.00000000	      0.00000000	     -5.43763610	     -2.22172716	     -6.37328145	     26.02667217	     43.64870860	      0.00000000	      5.70850840	     -7.57155289	    -11.31297730	     26.56022208	     20.33638902	     44.14653256	      0.00000000	      5.70850840
      0.10000000	      5.01259538	     -0.96075646	    172.99717786	      2.46675256	      0.89585899	      0.58872104	     11.03999065	      2.07584457	      3.86089774	     15.94545414	      0.27830068	     18.14219938	    -15.17683145	      0.00000000	      9.04330493	      0.50437929	     -8.23483568	     13.36211754	      0.23321295	     14.58315659	    -17.66971214	      0.00000000	     -0.00040248	     -0.19584451	     -0.21144287	     -0.00074744	     -0.26047319	     -0.22465805	     -0.00066123	     -0.47617634	     -0.22465805	     -0.00045999	     -0.47617634	     -0.18501251	     -0.00037374	     -0.39936612	     -0.17179733	     -0.00022998	     -0.30336314	     -0.15858215	     -0.00287487	     -2.21543224	     -1.17598179	      0.00000000	      0.00000000	     -0.00000000	      0.00000000	      0.00000000	     -5.45928705	     -2.61778965	     -5.61763128	     26.14379393	     43.88384494	      0.00000000	      5.69265626	     -7.92737537	    -11.23655383	     26.09684508	     20.67940794	     44.06641383	      0.00000000	      5.69265626
      0.13333333	      5.00974789	     -1.42463239	    172.95572235	      2.46542212	      0.89573791	      0.58877450	     11.79883744	      1.04085626	     -0.11781870	     17.69863162	      0.30889939	     20.65369616	     -8.92305970	      0.00000000	      9.04372368	      1.01368217	     -8.62715304	     13.25446041	      0.23133397	     14.79635664	    -17.98879291	      0.00000000	     -0.00122054	     -0.23374574	     -0.19647384	     -0.00226666	     -0.31088183	     -0.20875346	     -0.00200522	     -0.56832939	     -0.20875346	     -0.00139495	     -0.56832939	     -0.17191461	     -0.00113339	     -0.47665431	     -0.15963500	     -0.00069742	     -0.36207215	     -0.14735538	     -0.00871818	     -2.64417856	     -1.09272857	      0.00000000	      0.00000000	     -0.00000000	      0.00000000	      0.00000000	     -5.56431100	     -3.44409229	     -2.34126073	     26.25185570	     45.20821968	      0.00000000	      5.57121771	     -8.47433481	    -10.63264416	     21.98928700	     21.15826308	     43.71968603	      0.00000000	      5.57121771
      0.16666667	      5.01361919	     -1.83549348	    172.95505750	      2.46502613	      0.89550554	      0.58821469	     12.87564439	      0.49132315	     -0.81450087	     19.87365176	      0.34686066	     21.49640636	     -8.33796732	      0.00000000	      9.21241140	      1.35421594	     -8.88520200	     13.43137159	      0.23442166	     15.06482081	    -18.16201664	      0.00000000	      0.00268807	     -0.26329728	     -0.11879232	      0.00499201	     -0.35018538	     -0.12621684	      0.00441623	     -0.64018101	     -0.12621684	      0.00307219	     -0.64018101	     -0.10394328	      0.00249614	     -0.53691581	     -0.09651876	      0.00153596	     -0.40784749	     -0.08909424	      0.01920059	     -2.97847149	     -0.66068725	      0.00000000	      0.00000000	     -0.00000000	      0.00000000	      0.00000000	     -6.11503835	     -3.33516929	     -2.84985896	     26.95713723	     45.14320765	      0.00000000	      5.56034981	     -8.21292158	    -10.63871128	     21.82807854	     20.98891200	     43.78066571	      0.00000000	      5.56034981
      0.20000000	      4.87809303	     -2.41987918	    172.68456111	      2.46479605	      0.89548702	      0.58796919	     13.78351335	     -1.45135939	     -7.03953686	     22.08242524	      0.38541103	     24.33697346	      1.52433534	      0.00000000	      9.20302781	      1.86994289	     -9.68213976	     13.52394295	      0.23603733	     15.00360246	    -18.15627545	      0.00000000	     -0.00017352	     -0.31217053	      0.01277113	     -0.00032224	     -0.41518680	      0.01356933	     -0.00028507	     -0.75901142	      0.01356933	     -0.00019831	     -0.75901142	      0.01117474	     -0.00016113	     -0.63657814	      0.01037654	     -0.00009915	     -0.48355215	      0.00957835	     -0.00123942	     -3.53133545	      0.07102920	      0.00000000	      0.00000000	     -0.00000000	      0.00000000	      0.00000000	     -6.75206137	     -1.85529751	     -9.25799124	     27.92401983	     44.29884986	      0.00000000	      5.46738389	     -7.89806765	    -10.75298828	     22.03982614	     20.92378704	     44.88115308	      0.00000000	      5.46738389
      0.23333333	      4.77984121	     -2.73392418	    172.57303775	      2.46484360	      0.89557055	      0.58781525	     14.44473966	     -2.36089945	     -9.03833475	     23.61080330	      0.41208626	     25.16312895	      4.49847697	      0.00000000	      9.11401740	      2.13919912	    -10.11281682	     13.40933210	      0.23403700	     14.91260910	    -18.10593261	      0.00000000	     -0.00110541	     -0.34900756	      0.05880489	     -0.00205285	     -0.46418006	      0.06248020	     -0.00181608	     -0.84857698	      0.06248020	     -0.00126337	     -0.84857698	      0.05145428	     -0.00102648	     -0.71169622	      0.04777898	     -0.00063163	     -0.54061271	      0.04410367	     -0.00789582	     -3.94804333	      0.32705517	      0.00000000	      0.00000000	     -0.00000000	      0.00000000	      0.00000000	     -6.94773838	     -1.36323592	    -10.76921524	     28.24035466	     44.38733409	      0.00000000	      5.33010484	     -7.73540966	    -10.83281817	     21.98471370	     20.77657016	     45.59668261	      0.00000000	      5.33010484
